# xmcd CD database file
#
# Track frame offsets:
#	150
#	6815
#	22676
#	36443
#	57138
#	78856
#	101189
#	111819
#	125909
#	154245
#	175191
#	196579
#	217629
#	235085
#	257711
#
# Disc length: 3673 seconds
#
# Revision: 0
# Processed by: cddbd v1.5.2PL0 Copyright (c) Steve Scherf et al.
# Submitted via: CDex 1.70beta2
#
DISCID=b70e570f
DTITLE=Magnificent 7 Jazz Band - The Good, The Bad and The Ugly
DYEAR=2015
DGENRE=Jazz
TTITLE0=Magnificent 7 Theme
TTITLE1=Dippermouth Blues - Solos - Exall, Cummings, Bateman.
TTITLE2=Midnight In Moscow
TTITLE3=Is You Is Or Is You Ain't My Baby - Vocal - Exall. Solos - Bateman, Cummings.
TTITLE4=Avalon - Solos - Exall/Roberts, Cummings/Bateman, Milverton.
TTITLE5=Benny's From Heaven - Vocal - Cummings. Solos - Roberts, Cummings, Milverton.
TTITLE6=Brasileirinho
TTITLE7=In A Persian Market
TTITLE8=Creole Love Call - Solos - Roberts, Coleman.
TTITLE9=Minute Waltz - Solos - Exall, Milverton, Cummings, Roberts, Bateman.
TTITLE10=So Do I - Vocal - Cummings. Solos - Exall, Bateman, Cummings.
TTITLE11=Serenade In Blue - Solos - Bateman, Exall, Milverton.
TTITLE12=Mona Lisa - Vocal - Exall. Solos - Exall, Bateman.
TTITLE13=Chimes Blues - Solos - Exall, Coleman, Milverton
TTITLE14=Ice Cream - Vocals - Exall, Millward, Cummings. Solos Milverton, Millward
EXTD=YEAR: 2015
EXTT0=
EXTT1=
EXTT2=
EXTT3=
EXTT4=
EXTT5=
EXTT6=
EXTT7=
EXTT8=
EXTT9=
EXTT10=
EXTT11=
EXTT12=
EXTT13=
EXTT14=
PLAYORDER=
